Coordinates
version=1
nRows=17
nColumns=33
inDegrees=yes

Units are S.I. units (second, meters, Newtons, ...)
Angles are in degrees.

endheader
time	ground_thorax_rot_x	ground_thorax_rot_y	ground_thorax_rot_z	ground_thorax_tx	ground_thorax_ty	ground_thorax_tz	clav_prot_r	clav_elev_r	scapula_abduction_r	scapula_elevation_r	scapula_upward_rot_r	scapula_winging_r	shoulder_elv_r	plane_of_elev_r	axial_rot_r	elbow_flexion_r	pro_sup_r	wrist_flex_r	wrist_dev_r	clav_prot_l	clav_elev_l	scapula_abduction_l	scapula_elevation_l	scapula_upward_rot_l	scapula_winging_l	shoulder_elv_l	plane_of_elev_l	axial_rot_l	elbow_flexion_l	pro_sup_l	wrist_flex_l	wrist_dev_l
      5.52000000	    -34.29504281	    -23.45189808	     33.29644846	   -179.56513342	    811.89817953	      7.40848335	      7.53718796	    -45.00000000	     38.66848401	    -45.00000000	    -37.67104927	   3138.44732693	  -3709.55148885	    147.37933132	   -114.01165662	   1812.45107173	      8.94067407	     19.21139866	      9.25113528	     15.05394475	     37.75026717	    -37.11938022	    -45.00000000	    -45.00000000	     84.36605616	     72.24193570	     25.12293753	    -33.15455779	   1090.71558757	     13.46708568	      6.98995019	    -19.62008958
      5.53000000	    -33.86749741	    -24.08376444	     34.22264451	   -174.97024363	    810.07867795	      7.41005949	      7.82297845	    -45.00000000	     38.66883817	    -45.00000000	    -38.05590987	   3138.55721153	  -3709.82382716	    147.43678479	   -113.86481644	   1812.38629500	      8.96824568	     19.12098864	      9.47866474	     14.90516244	     37.70860447	    -37.03485445	    -45.00000000	    -45.00000000	     84.25919049	     71.86786020	     25.14215058	    -33.62883256	   1090.60435894	     13.52707485	      7.20546039	    -19.52339840
      5.54000000	    -33.44945927	    -24.73295258	     35.06029591	   -170.27067729	    808.18955884	      7.39936830	      7.79933984	    -45.00000000	     38.61854245	    -45.00000000	    -38.32327791	   3138.77400048	  -3710.05196989	    147.51160435	   -113.71789464	   1812.34233871	      9.09766160	     19.02099871	      9.73586603	     14.96460043	     37.75654510	    -36.82553666	    -45.00000000	    -45.00000000	     84.01765091	     71.65071071	     25.07112124	    -34.07340427	   1090.49156456	     13.66341618	      7.44027292	    -19.43108259
      5.55000000	    -33.00860145	    -25.37755193	     36.02664451	   -165.47758314	    806.24088433	      7.37984667	      7.89286297	    -45.00000000	     38.58386636	    -45.00000000	    -38.79994761	   3138.96186764	  -3710.36998529	    147.59552458	   -113.57899315	   1812.28311783	      9.34601525	     18.91148815	      9.98544670	     14.88785370	     37.73667455	    -36.63610922	    -45.00000000	    -45.00000000	     83.81798547	     71.41698762	     24.99469438	    -34.62510566	   1090.47891498	     13.89283145	      7.67175932	    -19.36448008
      5.56000000	    -32.50402706	    -26.14354162	     37.06601699	   -160.59508310	    804.23898342	      7.35593342	      8.24819011	    -45.00000000	     38.50230483	    -45.00000000	    -39.35854861	   3139.10419037	  -3710.77583728	    147.61077450	   -113.29597496	   1812.18371536	      9.71193506	     18.79479601	     10.20047261	     14.62483557	     37.57432358	    -36.34952980	    -45.00000000	    -45.00000000	     83.76043055	     71.11748845	     25.01711883	    -35.27390635	   1090.34625910	     14.19661554	      7.84439050	    -19.26381698
      5.57000000	    -32.12644316	    -26.64659783	     37.90895194	   -155.63259225	    802.19242427	      7.33231940	      7.58981521	    -45.00000000	     38.26309543	    -45.00000000	    -39.51768466	   3139.38832052	  -3711.02094185	    147.81765286	   -113.32213501	   1812.10520576	     10.32372193	     18.65542499	     10.47201440	     15.04835640	     37.79776137	    -36.21596919	    -45.00000000	    -45.00000000	     83.19612585	     71.13548212	     24.62423073	    -35.68497124	   1090.29181407	     14.61647364	      8.12964302	    -19.21122296
      5.58000000	    -31.47259690	    -27.45122248	     39.12481925	   -150.60502257	    800.11357334	      7.31368302	      7.83009038	    -45.00000000	     38.18780270	    -45.00000000	    -40.28699397	   3139.61299624	  -3711.29118804	    147.91443101	   -113.16103585	   1812.05735343	     10.97664257	     18.57198040	     10.59277049	     14.97784147	     37.83408616	    -35.89746719	    -45.00000000	    -45.00000000	     83.13652234	     70.74299793	     24.52011443	    -36.70542431	   1090.20522613	     15.11726250	      8.22754578	    -19.14329366
      5.59000000	    -30.74051534	    -28.33298498	     40.49090685	   -145.51721866	    798.01183370	      7.30385514	      8.61065300	    -45.00000000	     38.14512403	    -45.00000000	    -41.47067713	   3139.68021588	  -3711.74796899	    147.76325116	   -112.75205405	   1811.89573426	     11.67543104	     18.45550074	     10.71857504	     14.32578198	     37.49486018	    -35.49533361	    -45.00000000	    -45.00000000	     83.16374850	     70.36578736	     24.49407981	    -37.76649101	   1090.08189863	     15.63489160	      8.43828123	    -19.07356178
      5.60000000	    -30.12742628	    -28.93238096	     41.62410159	   -140.38357667	    795.90170084	      7.30612402	      8.07778087	    -45.00000000	     37.92583052	    -45.00000000	    -41.79889823	   3139.97187676	  -3711.86525198	    148.12145355	   -112.70327851	   1811.91248879	     12.54412529	     18.37219852	     10.87516238	     14.79431271	     37.77471179	    -35.18313841	    -45.00000000	    -45.00000000	     82.73656483	     70.23359202	     24.18528681	    -38.46030030	   1089.92903905	     16.17938789	      8.57169475	    -19.00966051
      5.61000000	    -29.52514630	    -29.55527136	     42.73224221	   -135.21715173	    793.80006158	      7.32340622	      7.91500785	    -45.00000000	     37.69640265	    -45.00000000	    -42.37467675	   3140.25326093	  -3712.19510484	    148.25987003	   -112.50355690	   1811.72648050	     13.65234002	     18.24048871	     11.00416475	     14.87498118	     37.85602174	    -34.89958672	    -45.00000000	    -45.00000000	     82.37495523	     70.10180213	     23.83765552	    -39.38976341	   1089.86164895	     16.85529764	      8.76461691	    -18.98420303
      5.62000000	    -28.57609519	    -30.50988559	     44.34792568	   -130.02661330	    791.72285060	      7.35840483	      8.77537926	    -45.00000000	     37.65105816	    -45.00000000	    -43.72115251	   3140.21052121	  -3712.70918928	    148.08478876	   -111.92323474	   1811.55218008	     14.60961240	     18.13615357	     11.04471623	     14.07633225	     37.50765165	    -34.42258618	    -45.00000000	    -45.00000000	     82.45396070	     69.69334090	     23.63816540	    -40.68962429	   1089.71988151	     17.49794525	      8.90620234	    -18.93340260
      5.63000000	    -27.96848570	    -31.02182467	     45.42395450	   -124.82612310	    789.68985041	      7.41359668	      8.16222305	    -45.00000000	     37.30434464	    -45.00000000	    -44.07741608	   3140.63445344	  -3712.81638057	    148.49206161	   -111.84052629	   1811.46126714	     15.81491872	     18.05274872	     11.10983515	     14.65578643	     37.82912570	    -34.06599873	    -45.00000000	    -45.00000000	     82.02129981	     69.61511383	     23.36923970	    -41.60515444	   1089.57576409	     18.21389027	      8.99149218	    -18.90938618
      5.64000000	    -27.17645778	    -31.67152957	     46.72884003	   -119.62821515	    787.72102240	      7.49124666	      8.54900525	    -45.00000000	     37.27957261	    -45.00000000	    -44.63893555	   3140.67061439	  -3713.31313971	    148.62659134	   -111.01423163	   1811.19586868	     16.93826591	     17.92605659	     11.10782886	     14.18323861	     37.72751481	    -33.66365745	    -45.00000000	    -45.00000000	     81.78649545	     69.40031872	     23.09738903	    -42.48468512	   1089.43851421	     18.89044357	      9.14519246	    -18.89483994
      5.65000000	    -26.16518498	    -32.41451112	     48.19650550	   -114.44969224	    785.83869682	      7.59265402	      8.96844955	    -45.00000000	     37.45656696	    -45.00000000	    -45.00000000	   3140.57506108	  -3713.73631238	    148.77790886	   -110.07390821	   1811.07939290	     18.01435169	     17.81899074	     11.19912957	     13.68993483	     37.42993678	    -33.11964207	    -45.00000000	    -45.00000000	     81.55831634	     69.17045441	     22.71238649	    -43.67709903	   1089.35879225	     19.60648831	      9.18794469	    -18.87561579
      5.66000000	    -25.44819663	    -32.89255577	     49.25788921	   -109.30675520	    784.06441533	      7.71730483	      8.90352050	    -45.00000000	     37.38975837	    -45.00000000	    -45.00000000	   3140.72796711	  -3714.08098927	    149.14808196	   -109.23225103	   1810.88095560	     19.13556705	     17.71677460	     11.22614948	     13.73757820	     37.44856631	    -32.71826183	    -45.00000000	    -45.00000000	     81.27260956	     68.96939247	     22.49214786	    -44.73219942	   1089.23087878	     20.36865354	      9.18131963	    -18.87021692
      5.67000000	    -24.70074948	    -33.38764056	     50.37310713	   -104.21934682	    782.42102596	      7.86303240	      9.01563047	    -45.00000000	     37.38392490	    -45.00000000	    -45.00000000	   3140.77683276	  -3714.48954651	    149.49994550	   -108.27931671	   1810.65825081	     20.27173528	     17.60728885	     11.21220235	     13.59191748	     37.40071305	    -32.29442635	    -45.00000000	    -45.00000000	     80.95852888	     68.83274788	     22.21252276	    -45.73973064	   1089.06771699	     21.19020755	      9.19858294	    -18.87622824
      5.68000000	    -23.91137224	    -33.86852750	     51.51059764	    -99.21415302	    780.93183386	      8.02559903	      9.11850884	    -45.00000000	     37.37957292	    -45.00000000	    -45.00000000	   3140.82724197	  -3714.83653170	    149.83778294	   -107.33025320	   1810.45231339	     21.38437734	     17.50366355	     11.18156796	     13.41978170	     37.35350531	    -31.92083462	    -45.00000000	    -45.00000000	     80.64860043	     68.68563645	     21.85245904	    -46.80127274	   1088.91664307	     22.06584182	      9.17751260	    -18.89281229
